# xmcd
#
# Track frame offsets: 
#        150
#        33620
#        54477
#        74347
#        94947
#        120330
#        145680
#        166685
#
# Disc length: 2467 seconds
#
# Revision: 2
# Processed by: cddbd v1.5.2PL0 Copyright (c) Steve Scherf et al.
# Submitted via: ExactAudioCopyFreeDBPlugin 1.0
#
DISCID=6509a108
DTITLE=Reggie Griffin - Mr. Everything
DYEAR=1982
DGENRE=Funk
TTITLE0=Mirda Rock
TTITLE1=Havin Fun
TTITLE2=Whisper (In Your Ear)
TTITLE3=You Don't Know (What I Know)
TTITLE4=Girl You Soothe Me
TTITLE5=Can't You See?
TTITLE6=Electric Love
TTITLE7=Be Myself
EXTD=
EXTT0=
EXTT1=
EXTT2=
EXTT3=
EXTT4=
EXTT5=
EXTT6=
EXTT7=
PLAYORDER=
